{
  "accessors": [
    {
      "bufferView": 2,
      "componentType": 5126,
      "count": 25952,
      "max": [
        12.169634819030762,
        18.229602813720703,
        10.903873443603516
      ],
      "min": [
        -1.0819202661514282,
        -2.161468267440796,
        -7.511119365692139
      ],
      "type": "VEC3"
    },
    {
      "bufferView": 2,
      "byteOffset": 311424,
      "componentType": 5126,
      "count": 25952,
      "max": [
        0.9997292160987854,
        0.9998689293861389,
        0.9999297261238098
      ],
      "min": [
        -0.9996256828308105,
        -0.9992181658744812,
        -1.0
      ],
      "type": "VEC3"
    },
    {
      "bufferView": 1,
      "componentType": 5126,
      "count": 25952,
      "max": [
        1.0000003576278687,
        1.0000001192092896
      ],
      "min": [
        0.0,
        0.0
      ],
      "type": "VEC2"
    },
    {
      "bufferView": 0,
      "componentType": 5125,
      "count": 38904,
      "type": "SCALAR"
    },
    {
      "bufferView": 2,
      "byteOffset": 622848,
      "componentType": 5126,
      "count": 20960,
      "max": [
        12.232725143432617,
        11.382486343383789,
        6.199913024902344
      ],
      "min": [
        7.668210983276367,
        -2.318864345550537,
        -6.199747085571289
      ],
      "type": "VEC3"
    },
    {
      "bufferView": 2,
      "byteOffset": 874368,
      "componentType": 5126,
      "count": 20960,
      "max": [
        0.9999821782112122,
        0.9979755282402039,
        0.9996973276138306
      ],
      "min": [
        -0.9997982382774353,
        -0.9996708631515503,
        -0.9997709393501282
      ],
      "type": "VEC3"
    },
    {
      "bufferView": 1,
      "byteOffset": 207616,
      "componentType": 5126,
      "count": 20960,
      "max": [
        0.8750001788139343,
        1.0000001192092896
      ],
      "min": [
        0.1250000149011612,
        0.0
      ],
      "type": "VEC2"
    },
    {
      "bufferView": 0,
      "byteOffset": 155616,
      "componentType": 5125,
      "count": 31440,
      "type": "SCALAR"
    },
    {
      "bufferView": 2,
      "byteOffset": 1125888,
      "componentType": 5126,
      "count": 13296,
      "max": [
        12.054777145385742,
        16.792924880981445,
        11.157245635986328
      ],
      "min": [
        1.3789291381835938,
        1.461391568183899,
        -7.72947883605957
      ],
      "type": "VEC3"
    },
    {
      "bufferView": 2,
      "byteOffset": 1285440,
      "componentType": 5126,
      "count": 13296,
      "max": [
        0.9998761415481567,
        0.9930204749107361,
        0.9995801448822021
      ],
      "min": [
        -0.9976078867912292,
        -0.9982274770736694,
        -0.9996058344841003
      ],
      "type": "VEC3"
    },
    {
      "bufferView": 1,
      "byteOffset": 375296,
      "componentType": 5126,
      "count": 13296,
      "max": [
        1.000000238418579,
        1.0000001192092896
      ],
      "min": [
        0.0,
        0.0
      ],
      "type": "VEC2"
    },
    {
      "bufferView": 0,
      "byteOffset": 281376,
      "componentType": 5125,
      "count": 19944,
      "type": "SCALAR"
    }
  ],
  "asset": {
    "extras": {
      "author": "Sabriny (https://sketchfab.com/sabriny)",
      "license": "CC-BY-4.0 (http://creativecommons.org/licenses/by/4.0/)",
      "source": "https://sketchfab.com/3d-models/cute-fox-78b5d956baa54815b3bddc9d9f3b43de",
      "title": "Cute Fox"
    },
    "generator": "Sketchfab-12.66.0",
    "version": "2.0"
  },
  "bufferViews": [
    {
      "buffer": 0,
      "byteLength": 361152,
      "name": "floatBufferViews",
      "target": 34963
    },
    {
      "buffer": 0,
      "byteLength": 481664,
      "byteOffset": 361152,
      "byteStride": 8,
      "name": "floatBufferViews",
      "target": 34962
    },
    {
      "buffer": 0,
      "byteLength": 1444992,
      "byteOffset": 842816,
      "byteStride": 12,
      "name": "floatBufferViews",
      "target": 34962
    }
  ],
  "buffers": [
    {
      "byteLength": 2287808,
      "uri": "scene.bin"
    }
  ],
  "extensionsRequired": [
    "KHR_materials_pbrSpecularGlossiness"
  ],
  "extensionsUsed": [
    "KHR_materials_pbrSpecularGlossiness"
  ],
  "materials": [
    {
      "doubleSided": true,
      "extensions": {
        "KHR_materials_pbrSpecularGlossiness": {
          "diffuseFactor": [
            0.7747660653375408,
            0.1474021493032121,
            0.033018399098006294,
            1.0
          ],
          "glossinessFactor": 1.0,
          "specularFactor": [
            0.0,
            0.0,
            0.0
          ]
        }
      },
      "name": "Material.002"
    },
    {
      "doubleSided": true,
      "extensions": {
        "KHR_materials_pbrSpecularGlossiness": {
          "diffuseFactor": [
            0.0,
            0.0,
            0.0,
            1.0
          ],
          "glossinessFactor": 0.5,
          "specularFactor": [
            0.0,
            0.0,
            0.0
          ]
        }
      },
      "name": "Material.004"
    },
    {
      "doubleSided": true,
      "extensions": {
        "KHR_materials_pbrSpecularGlossiness": {
          "diffuseFactor": [
            0.8,
            0.8,
            0.8,
            1.0
          ],
          "glossinessFactor": 0.5,
          "specularFactor": [
            0.0,
            0.0,
            0.0
          ]
        }
      },
      "name": "Material.005"
    }
  ],
  "meshes": [
    {
      "name": "Object_0",
      "primitives": [
        {
          "attributes": {
            "NORMAL": 1,
            "POSITION": 0,
            "TEXCOORD_0": 2
          },
          "indices": 3,
          "material": 0,
          "mode": 4
        }
      ]
    },
    {
      "name": "Object_1",
      "primitives": [
        {
          "attributes": {
            "NORMAL": 5,
            "POSITION": 4,
            "TEXCOORD_0": 6
          },
          "indices": 7,
          "material": 1,
          "mode": 4
        }
      ]
    },
    {
      "name": "Object_2",
      "primitives": [
        {
          "attributes": {
            "NORMAL": 9,
            "POSITION": 8,
            "TEXCOORD_0": 10
          },
          "indices": 11,
          "material": 2,
          "mode": 4
        }
      ]
    }
  ],
  "nodes": [
    {
      "children": [
        1
      ],
      "matrix": [
        1.0,
        0.0,
        0.0,
        0.0,
        0.0,
        2.220446049250313e-16,
        -1.0,
        0.0,
        0.0,
        1.0,
        2.220446049250313e-16,
        0.0,
        0.0,
        0.0,
        0.0,
        1.0
      ],
      "name": "Sketchfab_model"
    },
    {
      "children": [
        2
      ],
      "name": "root"
    },
    {
      "children": [
        3
      ],
      "matrix": [
        1.0,
        0.0,
        0.0,
        0.0,
        0.0,
        2.220446049250313e-16,
        1.0,
        0.0,
        0.0,
        -1.0,
        2.220446049250313e-16,
        0.0,
        0.0,
        0.0,
        0.0,
        1.0
      ],
      "name": "GLTF_SceneRootNode"
    },
    {
      "children": [
        4,
        5,
        6
      ],
      "matrix": [
        0.26329559087753296,
        0.0,
        0.0,
        0.0,
        0.0,
        0.26329559087753296,
        0.0,
        0.0,
        0.0,
        0.0,
        0.26329559087753296,
        0.0,
        -1.2286581993103027,
        -2.3459694385528564,
        -0.4961947202682495,
        1.0
      ],
      "name": "Cube.002_1"
    },
    {
      "mesh": 0,
      "name": "Object_4"
    },
    {
      "mesh": 1,
      "name": "Object_5"
    },
    {
      "mesh": 2,
      "name": "Object_6"
    }
  ],
  "scene": 0,
  "scenes": [
    {
      "name": "Sketchfab_Scene",
      "nodes": [
        0
      ]
    }
  ]
}
