{
  "accessors": [
    {
      "bufferView": 2,
      "componentType": 5126,
      "count": 136,
      "max": [
        1.6428414583206177,
        1.6428415775299072,
        1.1041483879089355
      ],
      "min": [
        -1.6428419351577759,
        -1.6428415775299072,
        -1.089830756187439
      ],
      "type": "VEC3"
    },
    {
      "bufferView": 2,
      "byteOffset": 1632,
      "componentType": 5126,
      "count": 136,
      "max": [
        1.0,
        1.0,
        1.0
      ],
      "min": [
        -1.0,
        -1.0,
        -1.0
      ],
      "type": "VEC3"
    },
    {
      "bufferView": 1,
      "componentType": 5126,
      "count": 136,
      "max": [
        0.8368892073631287,
        0.9864346385002136
      ],
      "min": [
        0.004736952483654022,
        0.0013435729779303074
      ],
      "type": "VEC2"
    },
    {
      "bufferView": 0,
      "componentType": 5125,
      "count": 204,
      "type": "SCALAR"
    },
    {
      "bufferView": 2,
      "byteOffset": 3264,
      "componentType": 5126,
      "count": 290,
      "max": [
        1.3374340534210205,
        13.111562728881836,
        3.1426753997802734
      ],
      "min": [
        -1.337433934211731,
        -13.111562728881836,
        -33.927433013916016
      ],
      "type": "VEC3"
    },
    {
      "bufferView": 2,
      "byteOffset": 6744,
      "componentType": 5126,
      "count": 290,
      "max": [
        1.0,
        1.0,
        1.0
      ],
      "min": [
        -1.0,
        -1.0,
        -1.0
      ],
      "type": "VEC3"
    },
    {
      "bufferView": 1,
      "byteOffset": 1088,
      "componentType": 5126,
      "count": 290,
      "max": [
        0.9906083345413208,
        1.0
      ],
      "min": [
        0.007166113704442978,
        0.0
      ],
      "type": "VEC2"
    },
    {
      "bufferView": 0,
      "byteOffset": 816,
      "componentType": 5125,
      "count": 444,
      "type": "SCALAR"
    },
    {
      "bufferView": 2,
      "byteOffset": 10224,
      "componentType": 5126,
      "count": 64,
      "max": [
        1.481418490409851,
        1.481418490409851,
        0.9174588918685913
      ],
      "min": [
        -1.481418490409851,
        -1.481418490409851,
        -1.01323664188385
      ],
      "type": "VEC3"
    },
    {
      "bufferView": 2,
      "byteOffset": 10992,
      "componentType": 5126,
      "count": 64,
      "max": [
        1.0,
        1.0,
        1.0
      ],
      "min": [
        -1.0,
        -1.0,
        -1.0
      ],
      "type": "VEC3"
    },
    {
      "bufferView": 1,
      "byteOffset": 3408,
      "componentType": 5126,
      "count": 64,
      "max": [
        0.9400533437728882,
        0.8959027528762817
      ],
      "min": [
        0.125,
        0.035144418478012085
      ],
      "type": "VEC2"
    },
    {
      "bufferView": 0,
      "byteOffset": 2592,
      "componentType": 5125,
      "count": 108,
      "type": "SCALAR"
    },
    {
      "bufferView": 2,
      "byteOffset": 11760,
      "componentType": 5126,
      "count": 64,
      "max": [
        1.481418490409851,
        1.481418490409851,
        0.9174588918685913
      ],
      "min": [
        -1.481418490409851,
        -1.481418490409851,
        -1.01323664188385
      ],
      "type": "VEC3"
    },
    {
      "bufferView": 2,
      "byteOffset": 12528,
      "componentType": 5126,
      "count": 64,
      "max": [
        1.0,
        1.0,
        1.0
      ],
      "min": [
        -1.0,
        -1.0,
        -1.0
      ],
      "type": "VEC3"
    },
    {
      "bufferView": 1,
      "byteOffset": 3920,
      "componentType": 5126,
      "count": 64,
      "max": [
        0.978882372379303,
        0.75
      ],
      "min": [
        0.015879720449447632,
        0.08810547739267349
      ],
      "type": "VEC2"
    },
    {
      "bufferView": 0,
      "byteOffset": 3024,
      "componentType": 5125,
      "count": 108,
      "type": "SCALAR"
    },
    {
      "bufferView": 2,
      "byteOffset": 13296,
      "componentType": 5126,
      "count": 48,
      "max": [
        1.0,
        1.0,
        2.6605751514434814
      ],
      "min": [
        -1.0,
        -1.0,
        -1.0
      ],
      "type": "VEC3"
    },
    {
      "bufferView": 2,
      "byteOffset": 13872,
      "componentType": 5126,
      "count": 48,
      "max": [
        1.0,
        1.0,
        1.0
      ],
      "min": [
        -1.0,
        -1.0,
        -1.0
      ],
      "type": "VEC3"
    },
    {
      "bufferView": 1,
      "byteOffset": 4432,
      "componentType": 5126,
      "count": 48,
      "max": [
        0.875,
        1.0
      ],
      "min": [
        0.07958301901817322,
        0.023240476846694946
      ],
      "type": "VEC2"
    },
    {
      "bufferView": 0,
      "byteOffset": 3456,
      "componentType": 5125,
      "count": 84,
      "type": "SCALAR"
    },
    {
      "bufferView": 2,
      "byteOffset": 14448,
      "componentType": 5126,
      "count": 64,
      "max": [
        1.481418490409851,
        1.481418490409851,
        0.9174588918685913
      ],
      "min": [
        -1.481418490409851,
        -1.481418490409851,
        -1.01323664188385
      ],
      "type": "VEC3"
    },
    {
      "bufferView": 2,
      "byteOffset": 15216,
      "componentType": 5126,
      "count": 64,
      "max": [
        1.0,
        1.0,
        1.0
      ],
      "min": [
        -1.0,
        -1.0,
        -1.0
      ],
      "type": "VEC3"
    },
    {
      "bufferView": 1,
      "byteOffset": 4816,
      "componentType": 5126,
      "count": 64,
      "max": [
        0.875,
        0.75
      ],
      "min": [
        0.125,
        0.0
      ],
      "type": "VEC2"
    },
    {
      "bufferView": 0,
      "byteOffset": 3792,
      "componentType": 5125,
      "count": 108,
      "type": "SCALAR"
    },
    {
      "bufferView": 2,
      "byteOffset": 15984,
      "componentType": 5126,
      "count": 64,
      "max": [
        1.481418490409851,
        1.481418490409851,
        1.0064611434936523
      ],
      "min": [
        -1.481418490409851,
        -1.481418490409851,
        -1.0064644813537598
      ],
      "type": "VEC3"
    },
    {
      "bufferView": 2,
      "byteOffset": 16752,
      "componentType": 5126,
      "count": 64,
      "max": [
        1.0,
        1.0,
        1.0
      ],
      "min": [
        -1.0,
        -1.0,
        -1.0
      ],
      "type": "VEC3"
    },
    {
      "bufferView": 1,
      "byteOffset": 5328,
      "componentType": 5126,
      "count": 64,
      "max": [
        0.9923397302627563,
        0.6814432740211487
      ],
      "min": [
        0.03672659397125244,
        0.002503424882888794
      ],
      "type": "VEC2"
    },
    {
      "bufferView": 0,
      "byteOffset": 4224,
      "componentType": 5125,
      "count": 108,
      "type": "SCALAR"
    },
    {
      "bufferView": 2,
      "byteOffset": 17520,
      "componentType": 5126,
      "count": 64,
      "max": [
        1.481418490409851,
        1.481418490409851,
        1.0064611434936523
      ],
      "min": [
        -1.481418490409851,
        -1.481418490409851,
        -1.0064644813537598
      ],
      "type": "VEC3"
    },
    {
      "bufferView": 2,
      "byteOffset": 18288,
      "componentType": 5126,
      "count": 64,
      "max": [
        1.0,
        1.0,
        1.0
      ],
      "min": [
        -1.0,
        -1.0,
        -1.0
      ],
      "type": "VEC3"
    },
    {
      "bufferView": 1,
      "byteOffset": 5840,
      "componentType": 5126,
      "count": 64,
      "max": [
        0.9923397302627563,
        0.9358404278755188
      ],
      "min": [
        0.03672659397125244,
        0.002503424882888794
      ],
      "type": "VEC2"
    },
    {
      "bufferView": 0,
      "byteOffset": 4656,
      "componentType": 5125,
      "count": 108,
      "type": "SCALAR"
    },
    {
      "bufferView": 2,
      "byteOffset": 19056,
      "componentType": 5126,
      "count": 64,
      "max": [
        1.481418490409851,
        1.481418490409851,
        1.0064611434936523
      ],
      "min": [
        -1.481418490409851,
        -1.481418490409851,
        -1.0064644813537598
      ],
      "type": "VEC3"
    },
    {
      "bufferView": 2,
      "byteOffset": 19824,
      "componentType": 5126,
      "count": 64,
      "max": [
        1.0,
        1.0,
        1.0
      ],
      "min": [
        -1.0,
        -1.0,
        -1.0
      ],
      "type": "VEC3"
    },
    {
      "bufferView": 1,
      "byteOffset": 6352,
      "componentType": 5126,
      "count": 64,
      "max": [
        0.9923397302627563,
        0.6814432740211487
      ],
      "min": [
        0.03672659397125244,
        0.002503424882888794
      ],
      "type": "VEC2"
    },
    {
      "bufferView": 0,
      "byteOffset": 5088,
      "componentType": 5125,
      "count": 108,
      "type": "SCALAR"
    },
    {
      "bufferView": 2,
      "byteOffset": 20592,
      "componentType": 5126,
      "count": 64,
      "max": [
        1.481418490409851,
        1.481418490409851,
        1.0064611434936523
      ],
      "min": [
        -1.481418490409851,
        -1.481418490409851,
        -1.0064644813537598
      ],
      "type": "VEC3"
    },
    {
      "bufferView": 2,
      "byteOffset": 21360,
      "componentType": 5126,
      "count": 64,
      "max": [
        1.0,
        1.0,
        1.0
      ],
      "min": [
        -1.0,
        -1.0,
        -1.0
      ],
      "type": "VEC3"
    },
    {
      "bufferView": 1,
      "byteOffset": 6864,
      "componentType": 5126,
      "count": 64,
      "max": [
        0.9923397302627563,
        0.6814432740211487
      ],
      "min": [
        0.03672659397125244,
        0.002503424882888794
      ],
      "type": "VEC2"
    },
    {
      "bufferView": 0,
      "byteOffset": 5520,
      "componentType": 5125,
      "count": 108,
      "type": "SCALAR"
    },
    {
      "bufferView": 2,
      "byteOffset": 22128,
      "componentType": 5126,
      "count": 64,
      "max": [
        1.481418490409851,
        1.481418490409851,
        0.9174588918685913
      ],
      "min": [
        -1.481418490409851,
        -1.481418490409851,
        -1.01323664188385
      ],
      "type": "VEC3"
    },
    {
      "bufferView": 2,
      "byteOffset": 22896,
      "componentType": 5126,
      "count": 64,
      "max": [
        1.0,
        1.0,
        1.0
      ],
      "min": [
        -1.0,
        -1.0,
        -1.0
      ],
      "type": "VEC3"
    },
    {
      "bufferView": 1,
      "byteOffset": 7376,
      "componentType": 5126,
      "count": 64,
      "max": [
        0.875,
        0.75
      ],
      "min": [
        0.125,
        0.12452814728021622
      ],
      "type": "VEC2"
    },
    {
      "bufferView": 0,
      "byteOffset": 5952,
      "componentType": 5125,
      "count": 108,
      "type": "SCALAR"
    },
    {
      "bufferView": 2,
      "byteOffset": 23664,
      "componentType": 5126,
      "count": 24,
      "max": [
        1.0,
        1.0,
        1.0
      ],
      "min": [
        -1.0,
        -1.0,
        -1.0
      ],
      "type": "VEC3"
    },
    {
      "bufferView": 2,
      "byteOffset": 23952,
      "componentType": 5126,
      "count": 24,
      "max": [
        1.0,
        1.0,
        1.0
      ],
      "min": [
        -1.0,
        -1.0,
        -1.0
      ],
      "type": "VEC3"
    },
    {
      "bufferView": 1,
      "byteOffset": 7888,
      "componentType": 5126,
      "count": 24,
      "max": [
        0.875,
        1.0
      ],
      "min": [
        0.06528228521347046,
        0.25
      ],
      "type": "VEC2"
    },
    {
      "bufferView": 0,
      "byteOffset": 6384,
      "componentType": 5125,
      "count": 36,
      "type": "SCALAR"
    },
    {
      "bufferView": 2,
      "byteOffset": 24240,
      "componentType": 5126,
      "count": 136,
      "max": [
        1.6428414583206177,
        1.6428415775299072,
        1.1041483879089355
      ],
      "min": [
        -1.6428419351577759,
        -1.6428415775299072,
        -1.089830756187439
      ],
      "type": "VEC3"
    },
    {
      "bufferView": 2,
      "byteOffset": 25872,
      "componentType": 5126,
      "count": 136,
      "max": [
        1.0,
        1.0,
        1.0
      ],
      "min": [
        -1.0,
        -1.0,
        -1.0
      ],
      "type": "VEC3"
    },
    {
      "bufferView": 1,
      "byteOffset": 8080,
      "componentType": 5126,
      "count": 136,
      "max": [
        0.9475136995315552,
        0.9963441491127014
      ],
      "min": [
        0.09031066298484802,
        0.001389831304550171
      ],
      "type": "VEC2"
    },
    {
      "bufferView": 0,
      "byteOffset": 6528,
      "componentType": 5125,
      "count": 204,
      "type": "SCALAR"
    },
    {
      "bufferView": 2,
      "byteOffset": 27504,
      "componentType": 5126,
      "count": 136,
      "max": [
        1.6428414583206177,
        1.6428415775299072,
        1.1041483879089355
      ],
      "min": [
        -1.6428419351577759,
        -1.6428415775299072,
        -1.089830756187439
      ],
      "type": "VEC3"
    },
    {
      "bufferView": 2,
      "byteOffset": 29136,
      "componentType": 5126,
      "count": 136,
      "max": [
        1.0,
        1.0,
        1.0
      ],
      "min": [
        -1.0,
        -1.0,
        -1.0
      ],
      "type": "VEC3"
    },
    {
      "bufferView": 1,
      "byteOffset": 9168,
      "componentType": 5126,
      "count": 136,
      "max": [
        0.8378967046737671,
        0.9991191029548645
      ],
      "min": [
        0.009649842977523804,
        0.0033684372901916504
      ],
      "type": "VEC2"
    },
    {
      "bufferView": 0,
      "byteOffset": 7344,
      "componentType": 5125,
      "count": 204,
      "type": "SCALAR"
    },
    {
      "bufferView": 2,
      "byteOffset": 30768,
      "componentType": 5126,
      "count": 136,
      "max": [
        1.6428414583206177,
        1.6428415775299072,
        1.1041483879089355
      ],
      "min": [
        -1.6428419351577759,
        -1.6428415775299072,
        -1.089830756187439
      ],
      "type": "VEC3"
    },
    {
      "bufferView": 2,
      "byteOffset": 32400,
      "componentType": 5126,
      "count": 136,
      "max": [
        1.0,
        1.0,
        1.0
      ],
      "min": [
        -1.0,
        -1.0,
        -1.0
      ],
      "type": "VEC3"
    },
    {
      "bufferView": 1,
      "byteOffset": 10256,
      "componentType": 5126,
      "count": 136,
      "max": [
        0.9316999912261963,
        0.9927507638931274
      ],
      "min": [
        0.16761387884616852,
        -0.0013680458068847656
      ],
      "type": "VEC2"
    },
    {
      "bufferView": 0,
      "byteOffset": 8160,
      "componentType": 5125,
      "count": 204,
      "type": "SCALAR"
    },
    {
      "bufferView": 2,
      "byteOffset": 34032,
      "componentType": 5126,
      "count": 136,
      "max": [
        1.6428414583206177,
        1.6428415775299072,
        1.1041483879089355
      ],
      "min": [
        -1.6428419351577759,
        -1.6428415775299072,
        -1.089830756187439
      ],
      "type": "VEC3"
    },
    {
      "bufferView": 2,
      "byteOffset": 35664,
      "componentType": 5126,
      "count": 136,
      "max": [
        1.0,
        1.0,
        1.0
      ],
      "min": [
        -1.0,
        -1.0,
        -1.0
      ],
      "type": "VEC3"
    },
    {
      "bufferView": 1,
      "byteOffset": 11344,
      "componentType": 5126,
      "count": 136,
      "max": [
        0.9547876119613647,
        0.9926297664642334
      ],
      "min": [
        0.125,
        0.00534704327583313
      ],
      "type": "VEC2"
    },
    {
      "bufferView": 0,
      "byteOffset": 8976,
      "componentType": 5125,
      "count": 204,
      "type": "SCALAR"
    },
    {
      "bufferView": 2,
      "byteOffset": 37296,
      "componentType": 5126,
      "count": 254,
      "max": [
        0.937576949596405,
        16.44611358642578,
        0.9375771880149841
      ],
      "min": [
        -0.937576949596405,
        -16.44611358642578,
        -24.227083206176758
      ],
      "type": "VEC3"
    },
    {
      "bufferView": 2,
      "byteOffset": 40344,
      "componentType": 5126,
      "count": 254,
      "max": [
        1.0,
        1.0,
        1.0
      ],
      "min": [
        -1.0,
        -1.0,
        -1.0
      ],
      "type": "VEC3"
    },
    {
      "bufferView": 1,
      "byteOffset": 12432,
      "componentType": 5126,
      "count": 254,
      "max": [
        0.9878234267234802,
        0.99715656042099
      ],
      "min": [
        0.019200295209884644,
        0.0028993929736316204
      ],
      "type": "VEC2"
    },
    {
      "bufferView": 0,
      "byteOffset": 9792,
      "componentType": 5125,
      "count": 408,
      "type": "SCALAR"
    },
    {
      "bufferView": 2,
      "byteOffset": 43392,
      "componentType": 5126,
      "count": 64,
      "max": [
        1.481418490409851,
        1.481418490409851,
        0.9174588918685913
      ],
      "min": [
        -1.481418490409851,
        -1.481418490409851,
        -1.01323664188385
      ],
      "type": "VEC3"
    },
    {
      "bufferView": 2,
      "byteOffset": 44160,
      "componentType": 5126,
      "count": 64,
      "max": [
        1.0,
        1.0,
        1.0
      ],
      "min": [
        -1.0,
        -1.0,
        -1.0
      ],
      "type": "VEC3"
    },
    {
      "bufferView": 1,
      "byteOffset": 14464,
      "componentType": 5126,
      "count": 64,
      "max": [
        0.9866718649864197,
        0.9917013049125671
      ],
      "min": [
        0.0026388708502054214,
        0.00144273042678833
      ],
      "type": "VEC2"
    },
    {
      "bufferView": 0,
      "byteOffset": 11424,
      "componentType": 5125,
      "count": 108,
      "type": "SCALAR"
    },
    {
      "bufferView": 2,
      "byteOffset": 44928,
      "componentType": 5126,
      "count": 160,
      "max": [
        2.103524684906006,
        3.074644088745117,
        4.429072856903076
      ],
      "min": [
        -2.1099042892456055,
        -5.832274436950684,
        -12.698225975036621
      ],
      "type": "VEC3"
    },
    {
      "bufferView": 2,
      "byteOffset": 46848,
      "componentType": 5126,
      "count": 160,
      "max": [
        1.0,
        1.0,
        0.9238796234130859
      ],
      "min": [
        -1.0,
        -1.0,
        -0.9817678332328796
      ],
      "type": "VEC3"
    },
    {
      "bufferView": 1,
      "byteOffset": 14976,
      "componentType": 5126,
      "count": 160,
      "max": [
        0.7718008756637573,
        0.7658828496932983
      ],
      "min": [
        0.024382777512073517,
        0.23095619678497314
      ],
      "type": "VEC2"
    },
    {
      "bufferView": 0,
      "byteOffset": 11856,
      "componentType": 5125,
      "count": 564,
      "type": "SCALAR"
    },
    {
      "bufferView": 2,
      "byteOffset": 48768,
      "componentType": 5126,
      "count": 154,
      "max": [
        0.9775221943855286,
        0.9775225520133972,
        8.83757209777832
      ],
      "min": [
        -0.9775217175483704,
        -0.9775214791297913,
        -2.2701005935668945
      ],
      "type": "VEC3"
    },
    {
      "bufferView": 2,
      "byteOffset": 50616,
      "componentType": 5126,
      "count": 154,
      "max": [
        0.875578761100769,
        0.875578761100769,
        0.6040018796920776
      ],
      "min": [
        -0.875578761100769,
        -0.875578761100769,
        -0.6138510704040527
      ],
      "type": "VEC3"
    },
    {
      "bufferView": 1,
      "byteOffset": 16256,
      "componentType": 5126,
      "count": 154,
      "max": [
        0.9319421648979187,
        0.9722076654434204
      ],
      "min": [
        0.008558332920074463,
        0.03747355937957764
      ],
      "type": "VEC2"
    },
    {
      "bufferView": 0,
      "byteOffset": 14112,
      "componentType": 5125,
      "count": 276,
      "type": "SCALAR"
    },
    {
      "bufferView": 2,
      "byteOffset": 52464,
      "componentType": 5126,
      "count": 189,
      "max": [
        1.4591137170791626,
        4.19061803817749,
        7.7209553718566895
      ],
      "min": [
        -1.0,
        -4.19061803817749,
        -1.284255027770996
      ],
      "type": "VEC3"
    },
    {
      "bufferView": 2,
      "byteOffset": 54732,
      "componentType": 5126,
      "count": 189,
      "max": [
        0.9986708164215088,
        0.9781425595283508,
        0.9962096810340881
      ],
      "min": [
        -0.9986708164215088,
        -0.9781425595283508,
        -0.9401156306266785
      ],
      "type": "VEC3"
    },
    {
      "bufferView": 1,
      "byteOffset": 17488,
      "componentType": 5126,
      "count": 189,
      "max": [
        0.9549719095230103,
        0.8298987150192261
      ],
      "min": [
        0.21136891841888428,
        0.17188240587711334
      ],
      "type": "VEC2"
    },
    {
      "bufferView": 0,
      "byteOffset": 15216,
      "componentType": 5125,
      "count": 564,
      "type": "SCALAR"
    },
    {
      "bufferView": 2,
      "byteOffset": 57000,
      "componentType": 5126,
      "count": 193,
      "max": [
        1.073653221130371,
        1.0362976789474487,
        1.0
      ],
      "min": [
        -1.0,
        -1.059410810470581,
        -1.0
      ],
      "type": "VEC3"
    },
    {
      "bufferView": 2,
      "byteOffset": 59316,
      "componentType": 5126,
      "count": 193,
      "max": [
        1.0,
        0.9834885597229004,
        0.90541011095047
      ],
      "min": [
        -0.8213474750518799,
        -0.9763194918632507,
        -0.9054101705551147
      ],
      "type": "VEC3"
    },
    {
      "bufferView": 1,
      "byteOffset": 19000,
      "componentType": 5126,
      "count": 193,
      "max": [
        0.9796792268753052,
        0.9548124074935913
      ],
      "min": [
        0.1681705117225647,
        0.3570359945297241
      ],
      "type": "VEC2"
    },
    {
      "bufferView": 0,
      "byteOffset": 17472,
      "componentType": 5125,
      "count": 726,
      "type": "SCALAR"
    },
    {
      "bufferView": 2,
      "byteOffset": 61632,
      "componentType": 5126,
      "count": 168,
      "max": [
        0.6344146728515625,
        0.597254753112793,
        6.903032302856445
      ],
      "min": [
        -0.6780595779418945,
        -0.5972576141357422,
        -6.86055326461792
      ],
      "type": "VEC3"
    },
    {
      "bufferView": 2,
      "byteOffset": 63648,
      "componentType": 5126,
      "count": 168,
      "max": [
        0.9999948740005493,
        1.0,
        0.9999948143959045
      ],
      "min": [
        -0.9999948740005493,
        -1.0,
        -0.9999948740005493
      ],
      "type": "VEC3"
    },
    {
      "bufferView": 1,
      "byteOffset": 20544,
      "componentType": 5126,
      "count": 168,
      "max": [
        0.9863098859786987,
        0.9980080127716064
      ],
      "min": [
        0.0011230000527575612,
        0.0019919872283935547
      ],
      "type": "VEC2"
    },
    {
      "bufferView": 0,
      "byteOffset": 20376,
      "componentType": 5125,
      "count": 252,
      "type": "SCALAR"
    },
    {
      "bufferView": 2,
      "byteOffset": 65664,
      "componentType": 5126,
      "count": 64,
      "max": [
        1.481418490409851,
        1.481418490409851,
        1.0064611434936523
      ],
      "min": [
        -1.481418490409851,
        -1.481418490409851,
        -1.0064644813537598
      ],
      "type": "VEC3"
    },
    {
      "bufferView": 2,
      "byteOffset": 66432,
      "componentType": 5126,
      "count": 64,
      "max": [
        1.0,
        1.0,
        1.0
      ],
      "min": [
        -1.0,
        -1.0,
        -1.0
      ],
      "type": "VEC3"
    },
    {
      "bufferView": 1,
      "byteOffset": 21888,
      "componentType": 5126,
      "count": 64,
      "max": [
        0.9919531345367432,
        0.9972079992294312
      ],
      "min": [
        0.008796781301498413,
        -0.003228801768273115
      ],
      "type": "VEC2"
    },
    {
      "bufferView": 0,
      "byteOffset": 21384,
      "componentType": 5125,
      "count": 108,
      "type": "SCALAR"
    },
    {
      "bufferView": 2,
      "byteOffset": 67200,
      "componentType": 5126,
      "count": 444,
      "max": [
        1.0309605598449707,
        1.0,
        1.0
      ],
      "min": [
        -1.0,
        -1.0,
        -1.0
      ],
      "type": "VEC3"
    },
    {
      "bufferView": 2,
      "byteOffset": 72528,
      "componentType": 5126,
      "count": 444,
      "max": [
        1.0,
        0.8081546425819397,
        0.9073060750961304
      ],
      "min": [
        -1.0,
        -0.797234296798706,
        -0.8338227272033691
      ],
      "type": "VEC3"
    },
    {
      "bufferView": 1,
      "byteOffset": 22400,
      "componentType": 5126,
      "count": 444,
      "max": [
        1.0370633602142334,
        0.9880685806274414
      ],
      "min": [
        0.023471742868423462,
        0.01705026626586914
      ],
      "type": "VEC2"
    },
    {
      "bufferView": 0,
      "byteOffset": 21816,
      "componentType": 5125,
      "count": 1329,
      "type": "SCALAR"
    },
    {
      "bufferView": 2,
      "byteOffset": 77856,
      "componentType": 5126,
      "count": 215,
      "max": [
        1.073653221130371,
        1.0362976789474487,
        1.0
      ],
      "min": [
        -1.0,
        -1.059410810470581,
        -1.0
      ],
      "type": "VEC3"
    },
    {
      "bufferView": 2,
      "byteOffset": 80436,
      "componentType": 5126,
      "count": 215,
      "max": [
        1.0,
        0.9834885597229004,
        0.90541011095047
      ],
      "min": [
        -0.8213474750518799,
        -0.9763194918632507,
        -0.9054101705551147
      ],
      "type": "VEC3"
    },
    {
      "bufferView": 1,
      "byteOffset": 25952,
      "componentType": 5126,
      "count": 215,
      "max": [
        0.8204736709594727,
        0.9866718053817749
      ],
      "min": [
        -0.0009270464070141315,
        0.03610255569219589
      ],
      "type": "VEC2"
    },
    {
      "bufferView": 0,
      "byteOffset": 27132,
      "componentType": 5125,
      "count": 726,
      "type": "SCALAR"
    },
    {
      "bufferView": 2,
      "byteOffset": 83016,
      "componentType": 5126,
      "count": 690,
      "max": [
        3.061107635498047,
        4.145181655883789,
        3.15179443359375
      ],
      "min": [
        -3.046438217163086,
        -3.265430450439453,
        -3.443687915802002
      ],
      "type": "VEC3"
    },
    {
      "bufferView": 2,
      "byteOffset": 91296,
      "componentType": 5126,
      "count": 690,
      "max": [
        0.9999287128448486,
        0.8678926825523376,
        0.9957996606826782
      ],
      "min": [
        -0.9999287128448486,
        -0.9070994257926941,
        -0.9055753946304321
      ],
      "type": "VEC3"
    },
    {
      "bufferView": 1,
      "byteOffset": 27672,
      "componentType": 5126,
      "count": 690,
      "max": [
        0.9980080127716064,
        0.8189929723739624
      ],
      "min": [
        0.0019920000340789557,
        0.0016349999932572246
      ],
      "type": "VEC2"
    },
    {
      "bufferView": 0,
      "byteOffset": 30036,
      "componentType": 5125,
      "count": 1068,
      "type": "SCALAR"
    },
    {
      "bufferView": 2,
      "byteOffset": 99576,
      "componentType": 5126,
      "count": 24,
      "max": [
        0.14596299827098846,
        1.8133292198181152,
        1.9068613052368164
      ],
      "min": [
        -0.14596299827098846,
        -1.8133289813995361,
        -1.9068613052368164
      ],
      "type": "VEC3"
    },
    {
      "bufferView": 2,
      "byteOffset": 99864,
      "componentType": 5126,
      "count": 24,
      "max": [
        1.0,
        1.0,
        1.0
      ],
      "min": [
        -1.0,
        -1.0,
        -1.0
      ],
      "type": "VEC3"
    },
    {
      "bufferView": 1,
      "byteOffset": 33192,
      "componentType": 5126,
      "count": 24,
      "max": [
        0.9927344918251038,
        0.9673299193382263
      ],
      "min": [
        0.007231588009744883,
        0.033411089330911636
      ],
      "type": "VEC2"
    },
    {
      "bufferView": 0,
      "byteOffset": 34308,
      "componentType": 5125,
      "count": 36,
      "type": "SCALAR"
    },
    {
      "bufferView": 2,
      "byteOffset": 100152,
      "componentType": 5126,
      "count": 24,
      "max": [
        0.14596299827098846,
        1.8133292198181152,
        1.9068613052368164
      ],
      "min": [
        -0.14596299827098846,
        -1.8133289813995361,
        -1.9068613052368164
      ],
      "type": "VEC3"
    },
    {
      "bufferView": 2,
      "byteOffset": 100440,
      "componentType": 5126,
      "count": 24,
      "max": [
        1.0,
        1.0,
        1.0
      ],
      "min": [
        -1.0,
        -1.0,
        -1.0
      ],
      "type": "VEC3"
    },
    {
      "bufferView": 1,
      "byteOffset": 33384,
      "componentType": 5126,
      "count": 24,
      "max": [
        0.451308012008667,
        0.9970373511314392
      ],
      "min": [
        0.007231593132019043,
        -0.0005016326904296875
      ],
      "type": "VEC2"
    },
    {
      "bufferView": 0,
      "byteOffset": 34452,
      "componentType": 5125,
      "count": 36,
      "type": "SCALAR"
    },
    {
      "bufferView": 2,
      "byteOffset": 100728,
      "componentType": 5126,
      "count": 24,
      "max": [
        1.0,
        1.0,
        1.0
      ],
      "min": [
        -1.0,
        -1.0,
        -1.0
      ],
      "type": "VEC3"
    },
    {
      "bufferView": 2,
      "byteOffset": 101016,
      "componentType": 5126,
      "count": 24,
      "max": [
        1.0,
        1.0,
        0.9554786086082458
      ],
      "min": [
        -1.0,
        -1.0,
        -1.0
      ],
      "type": "VEC3"
    },
    {
      "bufferView": 1,
      "byteOffset": 33576,
      "componentType": 5126,
      "count": 24,
      "max": [
        0.933571457862854,
        0.9764175415039063
      ],
      "min": [
        0.3390609920024872,
        0.027444124221801758
      ],
      "type": "VEC2"
    },
    {
      "bufferView": 0,
      "byteOffset": 34596,
      "componentType": 5125,
      "count": 36,
      "type": "SCALAR"
    },
    {
      "bufferView": 2,
      "byteOffset": 101304,
      "componentType": 5126,
      "count": 24,
      "max": [
        1.0,
        1.0,
        0.3437986373901367
      ],
      "min": [
        -1.0,
        -1.0,
        -1.0
      ],
      "type": "VEC3"
    },
    {
      "bufferView": 2,
      "byteOffset": 101592,
      "componentType": 5126,
      "count": 24,
      "max": [
        1.0,
        1.0,
        0.9126909971237183
      ],
      "min": [
        -1.0,
        -1.0,
        -1.0
      ],
      "type": "VEC3"
    },
    {
      "bufferView": 1,
      "byteOffset": 33768,
      "componentType": 5126,
      "count": 24,
      "max": [
        0.933571457862854,
        0.9764175415039063
      ],
      "min": [
        0.3390609920024872,
        0.027444124221801758
      ],
      "type": "VEC2"
    },
    {
      "bufferView": 0,
      "byteOffset": 34740,
      "componentType": 5125,
      "count": 36,
      "type": "SCALAR"
    },
    {
      "bufferView": 2,
      "byteOffset": 101880,
      "componentType": 5126,
      "count": 24,
      "max": [
        1.0,
        1.0,
        1.0
      ],
      "min": [
        -1.0,
        -1.0,
        -1.0
      ],
      "type": "VEC3"
    },
    {
      "bufferView": 2,
      "byteOffset": 102168,
      "componentType": 5126,
      "count": 24,
      "max": [
        1.0,
        1.0,
        1.0
      ],
      "min": [
        -1.0,
        -1.0,
        -1.0
      ],
      "type": "VEC3"
    },
    {
      "bufferView": 1,
      "byteOffset": 33960,
      "componentType": 5126,
      "count": 24,
      "max": [
        0.933571457862854,
        0.9764175415039063
      ],
      "min": [
        0.3390609920024872,
        0.027444124221801758
      ],
      "type": "VEC2"
    },
    {
      "bufferView": 0,
      "byteOffset": 34884,
      "componentType": 5125,
      "count": 36,
      "type": "SCALAR"
    },
    {
      "bufferView": 2,
      "byteOffset": 102456,
      "componentType": 5126,
      "count": 9096,
      "max": [
        37.96255111694336,
        138.20956420898438,
        10.713716506958008
      ],
      "min": [
        -33.116851806640625,
        -13.575286865234375,
        -1.5534194707870483
      ],
      "type": "VEC3"
    },
    {
      "bufferView": 2,
      "byteOffset": 211608,
      "componentType": 5126,
      "count": 9096,
      "max": [
        1.0,
        1.0,
        1.0
      ],
      "min": [
        -1.0,
        -1.0,
        -1.0
      ],
      "type": "VEC3"
    },
    {
      "bufferView": 1,
      "byteOffset": 34152,
      "componentType": 5126,
      "count": 9096,
      "max": [
        0.9923397302627563,
        1.0
      ],
      "min": [
        0.0011230000527575612,
        -0.003228801768273115
      ],
      "type": "VEC2"
    },
    {
      "bufferView": 0,
      "byteOffset": 35028,
      "componentType": 5125,
      "count": 13980,
      "type": "SCALAR"
    },
    {
      "bufferView": 2,
      "byteOffset": 320760,
      "componentType": 5126,
      "count": 1218,
      "max": [
        34.077919006347656,
        125.09870910644531,
        12.439111709594727
      ],
      "min": [
        -30.79439926147461,
        -1.658818006515503,
        -0.28898853063583374
      ],
      "type": "VEC3"
    },
    {
      "bufferView": 2,
      "byteOffset": 335376,
      "componentType": 5126,
      "count": 1218,
      "max": [
        0.9094130992889404,
        1.0,
        0.99998939037323
      ],
      "min": [
        -0.9997161626815796,
        -1.0,
        -0.9999894499778748
      ],
      "type": "VEC3"
    },
    {
      "bufferView": 1,
      "byteOffset": 106920,
      "componentType": 5126,
      "count": 1218,
      "max": [
        0.9796792268753052,
        1.0
      ],
      "min": [
        0.008558332920074463,
        0.023240476846694946
      ],
      "type": "VEC2"
    },
    {
      "bufferView": 0,
      "byteOffset": 90948,
      "componentType": 5125,
      "count": 3090,
      "type": "SCALAR"
    },
    {
      "bufferView": 2,
      "byteOffset": 349992,
      "componentType": 5126,
      "count": 1896,
      "max": [
        37.33519744873047,
        122.08220672607422,
        9.838284492492676
      ],
      "min": [
        -26.958110809326172,
        -1.6536680459976196,
        -1.6265889406204224
      ],
      "type": "VEC3"
    },
    {
      "bufferView": 2,
      "byteOffset": 372744,
      "componentType": 5126,
      "count": 1896,
      "max": [
        0.8795819878578186,
        1.0,
        0.9999900460243225
      ],
      "min": [
        -0.8795819878578186,
        -1.0,
        -0.9999900460243225
      ],
      "type": "VEC3"
    },
    {
      "bufferView": 1,
      "byteOffset": 116664,
      "componentType": 5126,
      "count": 1896,
      "max": [
        0.9927344918251038,
        0.9764175415039063
      ],
      "min": [
        0.007231588009744883,
        0.027444124221801758
      ],
      "type": "VEC2"
    },
    {
      "bufferView": 0,
      "byteOffset": 103308,
      "componentType": 5125,
      "count": 2844,
      "type": "SCALAR"
    },
    {
      "bufferView": 2,
      "byteOffset": 395496,
      "componentType": 5126,
      "count": 7505,
      "max": [
        40.81241226196289,
        129.04269409179688,
        -0.45164912939071655
      ],
      "min": [
        -31.27665138244629,
        -21.423213958740234,
        -2.576362133026123
      ],
      "type": "VEC3"
    },
    {
      "bufferView": 2,
      "byteOffset": 485556,
      "componentType": 5126,
      "count": 7505,
      "max": [
        0.9748502373695374,
        0.99998939037323,
        0.9999881982803345
      ],
      "min": [
        -0.8788161873817444,
        -1.0,
        -0.9999881982803345
      ],
      "type": "VEC3"
    },
    {
      "bufferView": 1,
      "byteOffset": 131832,
      "componentType": 5126,
      "count": 7505,
      "max": [
        1.0370633602142334,
        0.9880685806274414
      ],
      "min": [
        -0.0009270464070141315,
        0.01705026626586914
      ],
      "type": "VEC2"
    },
    {
      "bufferView": 0,
      "byteOffset": 114684,
      "componentType": 5125,
      "count": 23124,
      "type": "SCALAR"
    },
    {
      "bufferView": 2,
      "byteOffset": 575616,
      "componentType": 5126,
      "count": 6960,
      "max": [
        50.25818634033203,
        130.29598999023438,
        10.583843231201172
      ],
      "min": [
        -38.339595794677734,
        -6.639764785766602,
        0.39772486686706543
      ],
      "type": "VEC3"
    },
    {
      "bufferView": 2,
      "byteOffset": 659136,
      "componentType": 5126,
      "count": 6960,
      "max": [
        0.9946965575218201,
        0.9955485463142395,
        0.9999929666519165
      ],
      "min": [
        -0.9980250597000122,
        -0.995549738407135,
        -0.9998056292533875
      ],
      "type": "VEC3"
    },
    {
      "bufferView": 1,
      "byteOffset": 191872,
      "componentType": 5126,
      "count": 6960,
      "max": [
        0.9980080127716064,
        0.8189929723739624
      ],
      "min": [
        0.0019920000340789557,
        0.0016349999932572246
      ],
      "type": "VEC2"
    },
    {
      "bufferView": 0,
      "byteOffset": 207180,
      "componentType": 5125,
      "count": 10680,
      "type": "SCALAR"
    },
    {
      "bufferView": 2,
      "byteOffset": 742656,
      "componentType": 5126,
      "count": 2352,
      "max": [
        10.876526832580566,
        7.898488998413086,
        10.988441467285156
      ],
      "min": [
        -5.147852897644043,
        -5.80729341506958,
        -3.215456485748291
      ],
      "type": "VEC3"
    },
    {
      "bufferView": 2,
      "byteOffset": 770880,
      "componentType": 5126,
      "count": 2352,
      "max": [
        1.0,
        1.0,
        1.0
      ],
      "min": [
        -1.0,
        -1.0,
        -1.0
      ],
      "type": "VEC3"
    },
    {
      "bufferView": 1,
      "byteOffset": 247552,
      "componentType": 5126,
      "count": 2352,
      "max": [
        0.9927344918251038,
        0.9764175415039063
      ],
      "min": [
        0.007231588009744883,
        0.027444124221801758
      ],
      "type": "VEC2"
    },
    {
      "bufferView": 0,
      "byteOffset": 249900,
      "componentType": 5125,
      "count": 3528,
      "type": "SCALAR"
    },
    {
      "bufferView": 2,
      "byteOffset": 799104,
      "componentType": 5126,
      "count": 1780,
      "max": [
        10.479174613952637,
        10.891782760620117,
        10.989079475402832
      ],
      "min": [
        -5.196481704711914,
        -4.143957138061523,
        -4.039788246154785
      ],
      "type": "VEC3"
    },
    {
      "bufferView": 2,
      "byteOffset": 820464,
      "componentType": 5126,
      "count": 1780,
      "max": [
        1.0,
        1.0,
        1.0
      ],
      "min": [
        -1.0,
        -1.0,
        -1.0
      ],
      "type": "VEC3"
    },
    {
      "bufferView": 1,
      "byteOffset": 266368,
      "componentType": 5126,
      "count": 1780,
      "max": [
        0.9796792268753052,
        1.0
      ],
      "min": [
        0.008558332920074463,
        0.023240476846694946
      ],
      "type": "VEC2"
    },
    {
      "bufferView": 0,
      "byteOffset": 264012,
      "componentType": 5125,
      "count": 4608,
      "type": "SCALAR"
    },
    {
      "bufferView": 2,
      "byteOffset": 841824,
      "componentType": 5126,
      "count": 13782,
      "max": [
        10.896003723144531,
        8.714102745056152,
        12.467476844787598
      ],
      "min": [
        -6.772212028503418,
        -6.00640344619751,
        -4.994318008422852
      ],
      "type": "VEC3"
    },
    {
      "bufferView": 2,
      "byteOffset": 1007208,
      "componentType": 5126,
      "count": 13782,
      "max": [
        1.0,
        1.0,
        1.0
      ],
      "min": [
        -1.0,
        -1.0,
        -1.0
      ],
      "type": "VEC3"
    },
    {
      "bufferView": 1,
      "byteOffset": 280608,
      "componentType": 5126,
      "count": 13782,
      "max": [
        0.9923397302627563,
        1.0
      ],
      "min": [
        0.0011230000527575612,
        -0.003228801768273115
      ],
      "type": "VEC2"
    },
    {
      "bufferView": 0,
      "byteOffset": 282444,
      "componentType": 5125,
      "count": 20784,
      "type": "SCALAR"
    },
    {
      "bufferView": 2,
      "byteOffset": 1172592,
      "componentType": 5126,
      "count": 11495,
      "max": [
        11.390480041503906,
        -4.7265849113464355,
        13.441121101379395
      ],
      "min": [
        -5.685493469238281,
        -6.869001388549805,
        -3.9832029342651367
      ],
      "type": "VEC3"
    },
    {
      "bufferView": 2,
      "byteOffset": 1310532,
      "componentType": 5126,
      "count": 11495,
      "max": [
        0.9999964237213135,
        0.9999977946281433,
        1.0
      ],
      "min": [
        -0.9999964237213135,
        -0.9999977350234985,
        -1.0
      ],
      "type": "VEC3"
    },
    {
      "bufferView": 1,
      "byteOffset": 390864,
      "componentType": 5126,
      "count": 11495,
      "max": [
        1.0370633602142334,
        0.9880685806274414
      ],
      "min": [
        -0.0009270464070141315,
        0.01705026626586914
      ],
      "type": "VEC2"
    },
    {
      "bufferView": 0,
      "byteOffset": 365580,
      "componentType": 5125,
      "count": 35232,
      "type": "SCALAR"
    },
    {
      "bufferView": 2,
      "byteOffset": 1448472,
      "componentType": 5126,
      "count": 11122,
      "max": [
        12.18819808959961,
        8.59968376159668,
        11.60703182220459
      ],
      "min": [
        -6.29650354385376,
        -2.609360933303833,
        -4.497861385345459
      ],
      "type": "VEC3"
    },
    {
      "bufferView": 2,
      "byteOffset": 1581936,
      "componentType": 5126,
      "count": 11122,
      "max": [
        0.9998883008956909,
        0.9991357326507568,
        0.999908983707428
      ],
      "min": [
        -0.9998883008956909,
        -0.9795154929161072,
        -0.9999089241027832
      ],
      "type": "VEC3"
    },
    {
      "bufferView": 1,
      "byteOffset": 482824,
      "componentType": 5126,
      "count": 11122,
      "max": [
        0.9980080127716064,
        0.8189929723739624
      ],
      "min": [
        0.0019920000340789557,
        0.0016349999932572246
      ],
      "type": "VEC2"
    },
    {
      "bufferView": 0,
      "byteOffset": 506508,
      "componentType": 5125,
      "count": 17088,
      "type": "SCALAR"
    }
  ],
  "asset": {
    "extras": {
      "author": "sharkie3D (https://sketchfab.com/sharkie3D)",
      "license": "SKETCHFAB Standard (https://sketchfab.com/licenses)",
      "source": "https://sketchfab.com/3d-models/modular-fantasy-house-819edb312ab04e2881f0292065995543",
      "title": "Modular Fantasy House"
    },
    "generator": "Sketchfab-16.45.0",
    "version": "2.0"
  },
  "bufferViews": [
    {
      "buffer": 0,
      "byteLength": 574860,
      "name": "floatBufferViews",
      "target": 34963
    },
    {
      "buffer": 0,
      "byteLength": 571800,
      "byteOffset": 574860,
      "byteStride": 8,
      "name": "floatBufferViews",
      "target": 34962
    },
    {
      "buffer": 0,
      "byteLength": 1715400,
      "byteOffset": 1146660,
      "byteStride": 12,
      "name": "floatBufferViews",
      "target": 34962
    }
  ],
  "buffers": [
    {
      "byteLength": 2862060,
      "uri": "scene.bin"
    }
  ],
  "images": [
    {
      "uri": "textures/material_planks_baseColor.png"
    },
    {
      "uri": "textures/material_window_and_steel_baseColor.png"
    },
    {
      "uri": "textures/material_rocks_baseColor.png"
    },
    {
      "uri": "textures/material_roof_baseColor.png"
    },
    {
      "uri": "textures/material_wood_baseColor.png"
    }
  ],
  "materials": [
    {
      "doubleSided": true,
      "name": "material_planks",
      "pbrMetallicRoughness": {
        "baseColorTexture": {
          "index": 0
        },
        "metallicFactor": 0.0,
        "roughnessFactor": 0.8211145618000169
      }
    },
    {
      "doubleSided": true,
      "name": "material_window_and_steel",
      "pbrMetallicRoughness": {
        "baseColorTexture": {
          "index": 1
        },
        "metallicFactor": 0.0,
        "roughnessFactor": 0.8211145618000169
      }
    },
    {
      "doubleSided": true,
      "name": "material_rocks",
      "pbrMetallicRoughness": {
        "baseColorTexture": {
          "index": 2
        },
        "metallicFactor": 0.0,
        "roughnessFactor": 0.7577142857142857
      }
    },
    {
      "doubleSided": true,
      "name": "material_roof",
      "pbrMetallicRoughness": {
        "baseColorTexture": {
          "index": 3
        },
        "metallicFactor": 0.0,
        "roughnessFactor": 0.8314699578355496
      }
    },
    {
      "doubleSided": true,
      "name": "material_wood",
      "pbrMetallicRoughness": {
        "baseColorTexture": {
          "index": 4
        },
        "metallicFactor": 0.0,
        "roughnessFactor": 0.8211145618000169
      }
    }
  ],
  "meshes": [
    {
      "name": "obj_window_material_planks_0",
      "primitives": [
        {
          "attributes": {
            "NORMAL": 1,
            "POSITION": 0,
            "TEXCOORD_0": 2
          },
          "indices": 3,
          "material": 0,
          "mode": 4
        }
      ]
    },
    {
      "name": "obj_window.002_material_planks_0",
      "primitives": [
        {
          "attributes": {
            "NORMAL": 5,
            "POSITION": 4,
            "TEXCOORD_0": 6
          },
          "indices": 7,
          "material": 0,
          "mode": 4
        }
      ]
    },
    {
      "name": "obj_window.003_material_planks_0",
      "primitives": [
        {
          "attributes": {
            "NORMAL": 9,
            "POSITION": 8,
            "TEXCOORD_0": 10
          },
          "indices": 11,
          "material": 0,
          "mode": 4
        }
      ]
    },
    {
      "name": "obj_window.004_material_planks_0",
      "primitives": [
        {
          "attributes": {
            "NORMAL": 13,
            "POSITION": 12,
            "TEXCOORD_0": 14
          },
          "indices": 15,
          "material": 0,
          "mode": 4
        }
      ]
    },
    {
      "name": "obj_window_pane_material_window_and_steel_0",
      "primitives": [
        {
          "attributes": {
            "NORMAL": 17,
            "POSITION": 16,
            "TEXCOORD_0": 18
          },
          "indices": 19,
          "material": 1,
          "mode": 4
        }
      ]
    },
    {
      "name": "obj_diamond_window_material_planks_0",
      "primitives": [
        {
          "attributes": {
            "NORMAL": 21,
            "POSITION": 20,
            "TEXCOORD_0": 22
          },
          "indices": 23,
          "material": 0,
          "mode": 4
        }
      ]
    },
    {
      "name": "obj_diamond_window.001_material_planks_0",
      "primitives": [
        {
          "attributes": {
            "NORMAL": 25,
            "POSITION": 24,
            "TEXCOORD_0": 26
          },
          "indices": 27,
          "material": 0,
          "mode": 4
        }
      ]
    },
    {
      "name": "obj_diamond_window.002_material_planks_0",
      "primitives": [
        {
          "attributes": {
            "NORMAL": 29,
            "POSITION": 28,
            "TEXCOORD_0": 30
          },
          "indices": 31,
          "material": 0,
          "mode": 4
        }
      ]
    },
    {
      "name": "obj_diamond_window.003_material_planks_0",
      "primitives": [
        {
          "attributes": {
            "NORMAL": 33,
            "POSITION": 32,
            "TEXCOORD_0": 34
          },
          "indices": 35,
          "material": 0,
          "mode": 4
        }
      ]
    },
    {
      "name": "obj_diamond_window.004_material_planks_0",
      "primitives": [
        {
          "attributes": {
            "NORMAL": 37,
            "POSITION": 36,
            "TEXCOORD_0": 38
          },
          "indices": 39,
          "material": 0,
          "mode": 4
        }
      ]
    },
    {
      "name": "obj_diamond_window.005_material_planks_0",
      "primitives": [
        {
          "attributes": {
            "NORMAL": 41,
            "POSITION": 40,
            "TEXCOORD_0": 42
          },
          "indices": 43,
          "material": 0,
          "mode": 4
        }
      ]
    },
    {
      "name": "obj_diamond_window_pane_material_window_and_steel_0",
      "primitives": [
        {
          "attributes": {
            "NORMAL": 45,
            "POSITION": 44,
            "TEXCOORD_0": 46
          },
          "indices": 47,
          "material": 1,
          "mode": 4
        }
      ]
    },
    {
      "name": "obj_door_material_planks_0",
      "primitives": [
        {
          "attributes": {
            "NORMAL": 49,
            "POSITION": 48,
            "TEXCOORD_0": 50
          },
          "indices": 51,
          "material": 0,
          "mode": 4
        }
      ]
    },
    {
      "name": "obj_door_2_material_planks_0",
      "primitives": [
        {
          "attributes": {
            "NORMAL": 53,
            "POSITION": 52,
            "TEXCOORD_0": 54
          },
          "indices": 55,
          "material": 0,
          "mode": 4
        }
      ]
    },
    {
      "name": "obj_door_3_material_planks_0",
      "primitives": [
        {
          "attributes": {
            "NORMAL": 57,
            "POSITION": 56,
            "TEXCOORD_0": 58
          },
          "indices": 59,
          "material": 0,
          "mode": 4
        }
      ]
    },
    {
      "name": "obj_door_4_material_planks_0",
      "primitives": [
        {
          "attributes": {
            "NORMAL": 61,
            "POSITION": 60,
            "TEXCOORD_0": 62
          },
          "indices": 63,
          "material": 0,
          "mode": 4
        }
      ]
    },
    {
      "name": "obj_plank_arc_material_planks_0",
      "primitives": [
        {
          "attributes": {
            "NORMAL": 65,
            "POSITION": 64,
            "TEXCOORD_0": 66
          },
          "indices": 67,
          "material": 0,
          "mode": 4
        }
      ]
    },
    {
      "name": "obj_plank_arc.001_material_planks_0",
      "primitives": [
        {
          "attributes": {
            "NORMAL": 69,
            "POSITION": 68,
            "TEXCOORD_0": 70
          },
          "indices": 71,
          "material": 0,
          "mode": 4
        }
      ]
    },
    {
      "name": "obj_chimney_material_window_and_steel_0",
      "primitives": [
        {
          "attributes": {
            "NORMAL": 73,
            "POSITION": 72,
            "TEXCOORD_0": 74
          },
          "indices": 75,
          "material": 1,
          "mode": 4
        }
      ]
    },
    {
      "name": "obj_spire_material_window_and_steel_0",
      "primitives": [
        {
          "attributes": {
            "NORMAL": 77,
            "POSITION": 76,
            "TEXCOORD_0": 78
          },
          "indices": 79,
          "material": 1,
          "mode": 4
        }
      ]
    },
    {
      "name": "obj_door_handle_material_window_and_steel_0",
      "primitives": [
        {
          "attributes": {
            "NORMAL": 81,
            "POSITION": 80,
            "TEXCOORD_0": 82
          },
          "indices": 83,
          "material": 1,
          "mode": 4
        }
      ]
    },
    {
      "name": "obj_door_handle_2_material_window_and_steel_0",
      "primitives": [
        {
          "attributes": {
            "NORMAL": 85,
            "POSITION": 84,
            "TEXCOORD_0": 86
          },
          "indices": 87,
          "material": 1,
          "mode": 4
        }
      ]
    },
    {
      "name": "obj_horizontal_beam_material_planks_0",
      "primitives": [
        {
          "attributes": {
            "NORMAL": 89,
            "POSITION": 88,
            "TEXCOORD_0": 90
          },
          "indices": 91,
          "material": 0,
          "mode": 4
        }
      ]
    },
    {
      "name": "obj_vertical_beam_material_planks_0",
      "primitives": [
        {
          "attributes": {
            "NORMAL": 93,
            "POSITION": 92,
            "TEXCOORD_0": 94
          },
          "indices": 95,
          "material": 0,
          "mode": 4
        }
      ]
    },
    {
      "name": "obj_rock_wall_large_material_rocks_0",
      "primitives": [
        {
          "attributes": {
            "NORMAL": 97,
            "POSITION": 96,
            "TEXCOORD_0": 98
          },
          "indices": 99,
          "material": 2,
          "mode": 4
        }
      ]
    },
    {
      "name": "obj_rock_wall_small_material_rocks_0",
      "primitives": [
        {
          "attributes": {
            "NORMAL": 101,
            "POSITION": 100,
            "TEXCOORD_0": 102
          },
          "indices": 103,
          "material": 2,
          "mode": 4
        }
      ]
    },
    {
      "name": "obj_roof_material_roof_0",
      "primitives": [
        {
          "attributes": {
            "NORMAL": 105,
            "POSITION": 104,
            "TEXCOORD_0": 106
          },
          "indices": 107,
          "material": 3,
          "mode": 4
        }
      ]
    },
    {
      "name": "obj_wooden_wall_light_material_wood_0",
      "primitives": [
        {
          "attributes": {
            "NORMAL": 109,
            "POSITION": 108,
            "TEXCOORD_0": 110
          },
          "indices": 111,
          "material": 4,
          "mode": 4
        }
      ]
    },
    {
      "name": "obj_wooden_wall_dark_material_planks_0",
      "primitives": [
        {
          "attributes": {
            "NORMAL": 113,
            "POSITION": 112,
            "TEXCOORD_0": 114
          },
          "indices": 115,
          "material": 0,
          "mode": 4
        }
      ]
    },
    {
      "name": "obj_single_plank_roof_medium.001_material_wood_0",
      "primitives": [
        {
          "attributes": {
            "NORMAL": 117,
            "POSITION": 116,
            "TEXCOORD_0": 118
          },
          "indices": 119,
          "material": 4,
          "mode": 4
        }
      ]
    },
    {
      "name": "obj_single_plank_roof_small.001_material_wood_0",
      "primitives": [
        {
          "attributes": {
            "NORMAL": 121,
            "POSITION": 120,
            "TEXCOORD_0": 122
          },
          "indices": 123,
          "material": 4,
          "mode": 4
        }
      ]
    },
    {
      "name": "obj_single_plank_roof.001_material_wood_0",
      "primitives": [
        {
          "attributes": {
            "NORMAL": 125,
            "POSITION": 124,
            "TEXCOORD_0": 126
          },
          "indices": 127,
          "material": 4,
          "mode": 4
        }
      ]
    },
    {
      "name": "obj_house_1_material_planks_0",
      "primitives": [
        {
          "attributes": {
            "NORMAL": 129,
            "POSITION": 128,
            "TEXCOORD_0": 130
          },
          "indices": 131,
          "material": 0,
          "mode": 4
        }
      ]
    },
    {
      "name": "obj_house_1_material_window_and_steel_0",
      "primitives": [
        {
          "attributes": {
            "NORMAL": 133,
            "POSITION": 132,
            "TEXCOORD_0": 134
          },
          "indices": 135,
          "material": 1,
          "mode": 4
        }
      ]
    },
    {
      "name": "obj_house_1_material_wood_0",
      "primitives": [
        {
          "attributes": {
            "NORMAL": 137,
            "POSITION": 136,
            "TEXCOORD_0": 138
          },
          "indices": 139,
          "material": 4,
          "mode": 4
        }
      ]
    },
    {
      "name": "obj_house_1_material_rocks_0",
      "primitives": [
        {
          "attributes": {
            "NORMAL": 141,
            "POSITION": 140,
            "TEXCOORD_0": 142
          },
          "indices": 143,
          "material": 2,
          "mode": 4
        }
      ]
    },
    {
      "name": "obj_house_1_material_roof_0",
      "primitives": [
        {
          "attributes": {
            "NORMAL": 145,
            "POSITION": 144,
            "TEXCOORD_0": 146
          },
          "indices": 147,
          "material": 3,
          "mode": 4
        }
      ]
    },
    {
      "name": "obj_house_2_material_wood_0",
      "primitives": [
        {
          "attributes": {
            "NORMAL": 149,
            "POSITION": 148,
            "TEXCOORD_0": 150
          },
          "indices": 151,
          "material": 4,
          "mode": 4
        }
      ]
    },
    {
      "name": "obj_house_2_material_window_and_steel_0",
      "primitives": [
        {
          "attributes": {
            "NORMAL": 153,
            "POSITION": 152,
            "TEXCOORD_0": 154
          },
          "indices": 155,
          "material": 1,
          "mode": 4
        }
      ]
    },
    {
      "name": "obj_house_2_material_planks_0",
      "primitives": [
        {
          "attributes": {
            "NORMAL": 157,
            "POSITION": 156,
            "TEXCOORD_0": 158
          },
          "indices": 159,
          "material": 0,
          "mode": 4
        }
      ]
    },
    {
      "name": "obj_house_2_material_rocks_0",
      "primitives": [
        {
          "attributes": {
            "NORMAL": 161,
            "POSITION": 160,
            "TEXCOORD_0": 162
          },
          "indices": 163,
          "material": 2,
          "mode": 4
        }
      ]
    },
    {
      "name": "obj_house_2_material_roof_0",
      "primitives": [
        {
          "attributes": {
            "NORMAL": 165,
            "POSITION": 164,
            "TEXCOORD_0": 166
          },
          "indices": 167,
          "material": 3,
          "mode": 4
        }
      ]
    }
  ],
  "nodes": [
    {
      "children": [
        1
      ],
      "matrix": [
        1.0,
        0.0,
        0.0,
        0.0,
        0.0,
        -6.123232939436859e-17,
        -1.0,
        0.0,
        0.0,
        1.0,
        -6.123232939436859e-17,
        0.0,
        0.0,
        0.0,
        0.0,
        1.0
      ],
      "name": "Sketchfab_model"
    },
    {
      "children": [
        2
      ],
      "matrix": [
        0.009999999776482582,
        0.0,
        0.0,
        0.0,
        0.0,
        0.0,
        0.009999999776482582,
        0.0,
        0.0,
        -0.009999999776482582,
        0.0,
        0.0,
        0.0,
        0.0,
        0.0,
        1.0
      ],
      "name": "2d17219f16b742e4b98e3545f4dbc94d.fbx"
    },
    {
      "children": [
        3,
        5,
        7,
        9,
        11,
        13,
        15,
        17,
        19,
        21,
        23,
        25,
        27,
        29,
        31,
        33,
        35,
        37,
        39,
        41,
        43,
        45,
        47,
        49,
        51,
        53,
        55,
        57,
        59,
        61,
        63,
        65,
        67,
        73
      ],
      "name": "RootNode"
    },
    {
      "children": [
        4
      ],
      "matrix": [
        -2.307010399105914e-06,
        -14.160328865051067,
        6.189676835957531e-07,
        0.0,
        -39.46246337890527,
        6.4292516114207e-06,
        5.958666192267075e-06,
        0.0,
        -2.1047805307606092e-05,
        -6.093072187990085e-06,
        -139.39331054687327,
        0.0,
        43.55354309082031,
        1025.1888427734375,
        4809.39501953125,
        1.0
      ],
      "name": "obj_window"
    },
    {
      "mesh": 0,
      "name": "obj_window_material_planks_0"
    },
    {
      "children": [
        6
      ],
      "matrix": [
        28.702741622924805,
        0.0,
        0.0,
        0.0,
        0.0,
        -1.735250913498657e-06,
        -10.650894165038922,
        0.0,
        0.0,
        11.653973579406584,
        -1.8986732931713992e-06,
        0.0,
        49.91722106933594,
        1412.057861328125,
        4804.23876953125,
        1.0
      ],
      "name": "obj_window.002"
    },
    {
      "mesh": 1,
      "name": "obj_window.002_material_planks_0"
    },
    {
      "children": [
        8
      ],
      "matrix": [
        18.118595123291016,
        0.0,
        0.0,
        0.0,
        0.0,
        -1.9947561218227404e-06,
        -12.243725776672202,
        0.0,
        0.0,
        215.48593139648153,
        -3.510711434249681e-05,
        0.0,
        49.198150634765625,
        1244.3389892578125,
        4804.27392578125,
        1.0
      ],
      "name": "obj_window.003"
    },
    {
      "mesh": 2,
      "name": "obj_window.003_material_planks_0"
    },
    {
      "children": [
        10
      ],
      "matrix": [
        12.799748420715332,
        0.0,
        0.0,
        0.0,
        0.0,
        9.633851051330558,
        4.2110900400130875e-07,
        0.0,
        0.0,
        -5.488798994854814e-06,
        125.56908416748034,
        0.0,
        52.46849060058594,
        1197.653564453125,
        4811.85546875,
        1.0
      ],
      "name": "obj_window.004"
    },
    {
      "mesh": 3,
      "name": "obj_window.004_material_planks_0"
    },
    {
      "children": [
        12
      ],
      "matrix": [
        4.280378341674805,
        0.0,
        0.0,
        0.0,
        0.0,
        -1.9968485336168016e-05,
        -122.56568908691244,
        0.0,
        0.0,
        105.57209014892439,
        -1.7199876651878662e-05,
        0.0,
        50.13465881347656,
        1145.571533203125,
        4805.86181640625,
        1.0
      ],
      "name": "obj_window_pane"
    },
    {
      "mesh": 4,
      "name": "obj_window_pane_material_window_and_steel_0"
    },
    {
      "children": [
        14
      ],
      "matrix": [
        10.082968711853027,
        0.0,
        0.0,
        0.0,
        0.0,
        5.206133842468256,
        2.2756733786085707e-07,
        0.0,
        0.0,
        -3.540450036158143e-06,
        80.99605560302726,
        0.0,
        15.085220336914063,
        827.0610961914063,
        5102.37939453125,
        1.0
      ],
      "name": "obj_diamond_window"
    },
    {
      "mesh": 5,
      "name": "obj_diamond_window_material_planks_0"
    },
    {
      "children": [
        16
      ],
      "matrix": [
        16.029645919799805,
        0.0,
        0.0,
        0.0,
        0.0,
        -4.824878246313453,
        -4.806464209057773,
        0.0,
        0.0,
        50.684120669346456,
        -50.87829652204873,
        0.0,
        14.354324340820313,
        869.3826904296875,
        5140.154296875,
        1.0
      ],
      "name": "obj_diamond_window.001"
    },
    {
      "mesh": 6,
      "name": "obj_diamond_window.001_material_planks_0"
    },
    {
      "children": [
        18
      ],
      "matrix": [
        16.029645919799805,
        0.0,
        0.0,
        0.0,
        0.0,
        -4.729600555442588,
        4.900247633605805,
        0.0,
        0.0,
        -51.67307150411354,
        -49.873599450615004,
        0.0,
        14.354324340820313,
        869.3826904296875,
        5056.568359375,
        1.0
      ],
      "name": "obj_diamond_window.002"
    },
    {
      "mesh": 7,
      "name": "obj_diamond_window.002_material_planks_0"
    },
    {
      "children": [
        20
      ],
      "matrix": [
        16.029645919799805,
        0.0,
        0.0,
        0.0,
        0.0,
        4.824877826118971,
        4.806464630862025,
        0.0,
        0.0,
        -50.684125117268394,
        50.87829209110179,
        0.0,
        14.354324340820313,
        787.4082641601563,
        5057.10693359375,
        1.0
      ],
      "name": "obj_diamond_window.003"
    },
    {
      "mesh": 8,
      "name": "obj_diamond_window.003_material_planks_0"
    },
    {
      "children": [
        22
      ],
      "matrix": [
        16.029645919799805,
        0.0,
        0.0,
        0.0,
        0.0,
        4.729600419126835,
        -4.900247765174473,
        0.0,
        0.0,
        51.67306740196991,
        49.87359271480112,
        0.0,
        14.354324340820313,
        787.4082641601563,
        5140.154296875,
        1.0
      ],
      "name": "obj_diamond_window.004"
    },
    {
      "mesh": 9,
      "name": "obj_diamond_window.004_material_planks_0"
    },
    {
      "children": [
        24
      ],
      "matrix": [
        10.082968711853027,
        0.0,
        0.0,
        0.0,
        0.0,
        -0.04933501700860369,
        -5.205900079889174,
        0.0,
        0.0,
        80.9923958814322,
        -0.7675447409784102,
        0.0,
        7.8460693359375,
        827.0610961914063,
        5098.08203125,
        1.0
      ],
      "name": "obj_diamond_window.005"
    },
    {
      "mesh": 10,
      "name": "obj_diamond_window.005_material_planks_0"
    },
    {
      "children": [
        26
      ],
      "matrix": [
        -2.9493470191955566,
        -0.0,
        -0.0,
        -0.0,
        -0.0,
        -40.617022725663496,
        -40.39455761547006,
        -0.0,
        -0.0,
        38.84720261364647,
        -39.06114596939304,
        -0.0,
        2.8270721435546875,
        828.083984375,
        5096.09619140625,
        1.0
      ],
      "name": "obj_diamond_window_pane"
    },
    {
      "mesh": 11,
      "name": "obj_diamond_window_pane_material_window_and_steel_0"
    },
    {
      "children": [
        28
      ],
      "matrix": [
        -1.873760588079574e-06,
        -11.501060485839679,
        5.027274023257539e-07,
        0.0,
        -42.97597503662003,
        7.001675341541489e-06,
        6.489191692663294e-06,
        0.0,
        -1.7504766452073602e-05,
        -5.067407871576876e-06,
        -115.92882537841653,
        0.0,
        49.35874938964844,
        1051.4674072265625,
        4395.8779296875,
        1.0
      ],
      "name": "obj_door"
    },
    {
      "mesh": 12,
      "name": "obj_door_material_planks_0"
    },
    {
      "children": [
        30
      ],
      "matrix": [
        3.182841720108747e-06,
        0.77690406132439,
        15.334900196752736,
        -0.0,
        -10.9946136474306,
        2.5810052209936548e-05,
        9.743904699760687e-07,
        -0.0,
        0.0003948070793836581,
        168.50293137416148,
        -8.536776245770982,
        -0.0,
        54.19883728027344,
        1238.4979248046875,
        4295.2841796875,
        1.0
      ],
      "name": "obj_door_2"
    },
    {
      "mesh": 13,
      "name": "obj_door_2_material_planks_0"
    },
    {
      "children": [
        32
      ],
      "matrix": [
        -3.200194072383141e-06,
        -16.435931777862628,
        -0.6563495504125907,
        0.0,
        -13.45144844055146,
        2.572211967362999e-06,
        1.173985937017986e-06,
        0.0,
        -9.941907251125771e-06,
        4.985188859848469,
        -124.8362613316214,
        0.0,
        54.19883728027344,
        1383.7615966796875,
        4400.66845703125,
        1.0
      ],
      "name": "obj_door_3"
    },
    {
      "mesh": 14,
      "name": "obj_door_3_material_planks_0"
    },
    {
      "children": [
        34
      ],
      "matrix": [
        -4.044162775615199e-07,
        0.7769040613308057,
        -15.33490019675273,
        0.0,
        -10.994613647432569,
        -2.495621058990523e-05,
        -9.743904687554213e-07,
        0.0,
        -0.0003832342753457666,
        168.50293137418814,
        8.53677624577102,
        0.0,
        54.19883728027344,
        1238.4979248046875,
        4498.87109375,
        1.0
      ],
      "name": "obj_door_4"
    },
    {
      "mesh": 15,
      "name": "obj_door_4_material_planks_0"
    },
    {
      "children": [
        36
      ],
      "matrix": [
        26.44005474966347,
        -5.44123608515402e-10,
        0.007618146702508994,
        0.0,
        0.008195434021718913,
        -4.634055425663584e-06,
        -28.443627130485744,
        0.0,
        1.4014486906093053e-09,
        20.755533218383516,
        -3.381505439427841e-06,
        0.0,
        64.79721069335938,
        830.7569580078125,
        4615.24365234375,
        1.0
      ],
      "name": "obj_plank_arc"
    },
    {
      "mesh": 16,
      "name": "obj_plank_arc_material_planks_0"
    },
    {
      "children": [
        38
      ],
      "matrix": [
        21.733422330896275,
        -5.890856171200119e-19,
        0.006262028747971519,
        0.0,
        0.006736554986627409,
        -3.8091419033219303e-06,
        -23.380345327719134,
        0.0,
        1.3578027473617139e-08,
        289.2501220703087,
        -4.712482447507261e-05,
        0.0,
        64.13421630859375,
        623.3954467773438,
        4617.7734375,
        1.0
      ],
      "name": "obj_plank_arc.001"
    },
    {
      "mesh": 17,
      "name": "obj_plank_arc.001_material_planks_0"
    },
    {
      "children": [
        40
      ],
      "matrix": [
        25.668066024780273,
        0.0,
        0.0,
        0.0,
        -0.0,
        -4.181858755431587e-06,
        -25.668066024779936,
        0.0,
        0.0,
        25.668066024779936,
        -4.181858755431587e-06,
        0.0,
        -7.135772705078125,
        1004.7871704101563,
        1647.2442626953125,
        1.0
      ],
      "name": "obj_chimney"
    },
    {
      "mesh": 18,
      "name": "obj_chimney_material_window_and_steel_0"
    },
    {
      "children": [
        42
      ],
      "matrix": [
        19.44321632385254,
        0.0,
        0.0,
        0.0,
        0.0,
        -3.5011569726844253e-06,
        -21.489948272704794,
        0.0,
        0.0,
        27.99323272705041,
        -4.560676494264763e-06,
        0.0,
        68.40934753417969,
        842.430419921875,
        1449.3560791015625,
        1.0
      ],
      "name": "obj_spire"
    },
    {
      "mesh": 19,
      "name": "obj_spire_material_window_and_steel_0"
    },
    {
      "children": [
        44
      ],
      "matrix": [
        9.503772462815324,
        0.8184814141510628,
        -4.3952399856711794e-08,
        0.0,
        1.8712781289161654e-07,
        -2.6850700617912495e-06,
        -9.538950920104602,
        0.0,
        -0.7765952612934708,
        9.017412651561385,
        -2.553499596649398e-06,
        0.0,
        36.39564514160156,
        976.714599609375,
        1898.0628662109375,
        1.0
      ],
      "name": "obj_door_handle"
    },
    {
      "mesh": 20,
      "name": "obj_door_handle_material_window_and_steel_0"
    },
    {
      "children": [
        46
      ],
      "matrix": [
        9.603780746459961,
        0.0,
        0.0,
        0.0,
        0.0,
        -1.5646544839434467e-06,
        -9.603780746459835,
        0.0,
        0.0,
        17.971408843993903,
        -2.927914138491893e-06,
        0.0,
        33.12797546386719,
        1041.635009765625,
        1898.0797119140625,
        1.0
      ],
      "name": "obj_door_handle_2"
    },
    {
      "mesh": 21,
      "name": "obj_door_handle_2_material_window_and_steel_0"
    },
    {
      "children": [
        48
      ],
      "matrix": [
        100.0,
        0.0,
        0.0,
        0.0,
        0.0,
        99.99999999999866,
        1.6292067073209114e-05,
        0.0,
        0.0,
        -1.6292067073209114e-05,
        99.99999999999866,
        0.0,
        -61.29302978515625,
        1393.9334716796875,
        3468.62646484375,
        1.0
      ],
      "name": "obj_horizontal_beam"
    },
    {
      "mesh": 22,
      "name": "obj_horizontal_beam_material_planks_0"
    },
    {
      "children": [
        50
      ],
      "matrix": [
        26.461326599121094,
        0.0,
        0.0,
        0.0,
        0.0,
        -4.311097307137948e-06,
        -26.461326599120746,
        0.0,
        0.0,
        435.7512512206974,
        -7.099288989471757e-05,
        0.0,
        37.322235107421875,
        766.583251953125,
        3935.9482421875,
        1.0
      ],
      "name": "obj_vertical_beam"
    },
    {
      "mesh": 23,
      "name": "obj_vertical_beam_material_planks_0"
    },
    {
      "children": [
        52
      ],
      "matrix": [
        41.88430807579501,
        -5.162092487994392e-09,
        -0.12247859523151078,
        0.0,
        -0.6300919884006979,
        -9.41863567421159e-06,
        -215.4741153617941,
        0.0,
        -4.5492577892803474e-10,
        99.45105743408193,
        -4.347125370163823e-06,
        0.0,
        3.787994384765625,
        472.20458984375,
        1769.474365234375,
        1.0
      ],
      "name": "obj_rock_wall_large"
    },
    {
      "mesh": 24,
      "name": "obj_rock_wall_large_material_rocks_0"
    },
    {
      "children": [
        54
      ],
      "matrix": [
        56.23133850097656,
        0.0,
        0.0,
        0.0,
        -0.0,
        -9.585180724729006e-06,
        -58.83341979980391,
        0.0,
        0.0,
        123.90303802490071,
        -2.018636713372901e-05,
        0.0,
        -8.95233154296875,
        466.2121887207031,
        1380.2109375,
        1.0
      ],
      "name": "obj_rock_wall_small"
    },
    {
      "mesh": 25,
      "name": "obj_rock_wall_small_material_rocks_0"
    },
    {
      "children": [
        56
      ],
      "matrix": [
        7.549789959870878e-06,
        2.6469779601696886e-21,
        -99.9999999999997,
        0.0,
        1.629207133646548e-05,
        99.99999999999866,
        1.2300171645552353e-12,
        0.0,
        99.99999999999837,
        -1.629207133646553e-05,
        7.549789959870878e-06,
        0.0,
        21.7010498046875,
        678.5069580078125,
        2439.743896484375,
        1.0
      ],
      "name": "obj_roof"
    },
    {
      "mesh": 26,
      "name": "obj_roof_material_roof_0"
    },
    {
      "children": [
        58
      ],
      "matrix": [
        132.1597900390625,
        0.0,
        0.0,
        0.0,
        0.0,
        132.15979003906074,
        2.1531561636976395e-05,
        0.0,
        0.0,
        -2.1531561636976395e-05,
        132.15979003906074,
        0.0,
        5.831146240234375,
        522.2330322265625,
        3134.5419921875,
        1.0
      ],
      "name": "obj_wooden_wall_light"
    },
    {
      "mesh": 27,
      "name": "obj_wooden_wall_light_material_wood_0"
    },
    {
      "children": [
        60
      ],
      "matrix": [
        132.1597900390625,
        0.0,
        0.0,
        0.0,
        0.0,
        132.15979003906074,
        2.1531561636976395e-05,
        0.0,
        0.0,
        -2.1531561636976395e-05,
        132.15979003906074,
        0.0,
        5.831146240234375,
        1035.837890625,
        3134.5419921875,
        1.0
      ],
      "name": "obj_wooden_wall_dark"
    },
    {
      "mesh": 28,
      "name": "obj_wooden_wall_dark_material_planks_0"
    },
    {
      "children": [
        62
      ],
      "matrix": [
        14.596260070800612,
        -2.2039739532304157e-06,
        -3.8635978708314526e-22,
        -0.0,
        -1.2525725082980911e-12,
        -8.295412970394493e-06,
        50.916881561278615,
        -0.0,
        2.738050859338412e-05,
        181.33291625976113,
        2.954288199367108e-05,
        -0.0,
        5.0411224365234375,
        990.6732788085938,
        3601.83935546875,
        1.0
      ],
      "name": "obj_single_plank_roof_medium.001"
    },
    {
      "mesh": 29,
      "name": "obj_single_plank_roof_medium.001_material_wood_0"
    },
    {
      "children": [
        64
      ],
      "matrix": [
        14.596260070800612,
        -2.2039739532304157e-06,
        -3.8635978708314526e-22,
        -0.0,
        -1.2525725082980911e-12,
        -8.295412970394493e-06,
        50.916881561278615,
        -0.0,
        2.738050859338412e-05,
        181.33291625976113,
        2.954288199367108e-05,
        -0.0,
        5.0411224365234375,
        990.6732788085938,
        3715.15966796875,
        1.0
      ],
      "name": "obj_single_plank_roof_small.001"
    },
    {
      "mesh": 30,
      "name": "obj_single_plank_roof_small.001_material_wood_0"
    },
    {
      "children": [
        66
      ],
      "matrix": [
        14.596260070800612,
        -2.2039739532304157e-06,
        -3.8635978708314526e-22,
        -0.0,
        -1.2525725082980911e-12,
        -8.295412970394493e-06,
        50.916881561278615,
        -0.0,
        3.5817200722853546e-05,
        237.20660400390037,
        3.864586118588642e-05,
        -0.0,
        5.0411224365234375,
        1044.108642578125,
        3483.258056640625,
        1.0
      ],
      "name": "obj_single_plank_roof.001"
    },
    {
      "mesh": 31,
      "name": "obj_single_plank_roof.001_material_wood_0"
    },
    {
      "children": [
        68,
        69,
        70,
        71,
        72
      ],
      "matrix": [
        -4.044162775615199e-07,
        0.7769040613308057,
        -15.33490019675273,
        0.0,
        -10.994613647432569,
        -2.495621058990523e-05,
        -9.743904687554213e-07,
        0.0,
        -0.0003832342753457666,
        168.50293137418814,
        8.53677624577102,
        0.0,
        1029.0050048828125,
        453.2525939941406,
        495.1637268066406,
        1.0
      ],
      "name": "obj_house_1"
    },
    {
      "mesh": 32,
      "name": "obj_house_1_material_planks_0"
    },
    {
      "mesh": 33,
      "name": "obj_house_1_material_window_and_steel_0"
    },
    {
      "mesh": 34,
      "name": "obj_house_1_material_wood_0"
    },
    {
      "mesh": 35,
      "name": "obj_house_1_material_rocks_0"
    },
    {
      "mesh": 36,
      "name": "obj_house_1_material_roof_0"
    },
    {
      "children": [
        74,
        75,
        76,
        77,
        78
      ],
      "matrix": [
        6.9712021709136016e-06,
        1.2220617129996938e-21,
        -92.33637237548801,
        0.0,
        2.058481187643414e-05,
        126.34864807128739,
        1.5541100601325531e-12,
        0.0,
        85.00238800048689,
        -1.3848649690738769e-05,
        6.417501754911353e-06,
        0.0,
        -63.132240295410156,
        948.1962280273438,
        -1303.230224609375,
        1.0
      ],
      "name": "obj_house_2"
    },
    {
      "mesh": 37,
      "name": "obj_house_2_material_wood_0"
    },
    {
      "mesh": 38,
      "name": "obj_house_2_material_window_and_steel_0"
    },
    {
      "mesh": 39,
      "name": "obj_house_2_material_planks_0"
    },
    {
      "mesh": 40,
      "name": "obj_house_2_material_rocks_0"
    },
    {
      "mesh": 41,
      "name": "obj_house_2_material_roof_0"
    }
  ],
  "samplers": [
    {
      "magFilter": 9729,
      "minFilter": 9987,
      "wrapS": 10497,
      "wrapT": 10497
    }
  ],
  "scene": 0,
  "scenes": [
    {
      "name": "Sketchfab_Scene",
      "nodes": [
        0
      ]
    }
  ],
  "textures": [
    {
      "sampler": 0,
      "source": 0
    },
    {
      "sampler": 0,
      "source": 1
    },
    {
      "sampler": 0,
      "source": 2
    },
    {
      "sampler": 0,
      "source": 3
    },
    {
      "sampler": 0,
      "source": 4
    }
  ]
}
